<svg xmlns="http://www.w3.org/2000/svg" width="143" height="32" viewBox="0 0 143 32" fill="none">
<g clip-path="url(#clip0_8_2)">
<path d="M41.5896 22.8571C41.275 22.8571 41.0199 22.6013 41.0199 22.2857V2.28572C41.0199 1.97012 41.275 1.71429 41.5896 1.71429H58.6887C59.0032 1.71429 59.2584 1.97013 59.2584 2.28572V5.76789C59.2584 6.08343 59.0032 6.33931 58.6887 6.33931H48.46C48.1453 6.33931 47.8902 6.59514 47.8902 6.91074V9.40177C47.8902 9.71737 48.1453 9.9732 48.46 9.9732H57.7498C58.0643 9.9732 58.3195 10.229 58.3195 10.5446V14.0268C58.3195 14.3424 58.0643 14.5982 57.7498 14.5982H48.46C48.1453 14.5982 47.8902 14.8541 47.8902 15.1697V17.6607C47.8902 17.9763 48.1453 18.2322 48.46 18.2322H58.6391C58.9542 18.2322 59.2088 18.488 59.2088 18.8036V22.2857C59.2088 22.6013 58.9542 22.8571 58.6391 22.8571H41.5896Z" fill="black"/>
<path d="M72.403 22.8571H63.2356C62.9211 22.8571 62.6659 22.6013 62.6659 22.2857V2.28572C62.6659 1.97012 62.9211 1.71429 63.2356 1.71429H72.3039C74.9069 1.71429 77.1562 2.13756 79.0511 2.9841C80.9539 3.82376 82.4198 5.03506 83.4499 6.618C84.4879 8.19411 85.0069 10.0833 85.0069 12.2857C85.0069 14.4881 84.4919 16.3807 83.4624 17.9637C82.4324 19.5398 80.9745 20.7511 79.0881 21.5977C77.2012 22.4373 74.973 22.8571 72.403 22.8571ZM69.5362 17.413C69.5362 17.7285 69.7914 17.9844 70.1059 17.9844H72.1557C73.408 17.9844 74.4745 17.8158 75.3564 17.4785C76.2458 17.1413 76.9215 16.5597 77.3829 15.7338C77.8524 14.9079 78.0871 13.7586 78.0871 12.2857C78.0871 10.8129 77.8484 9.66349 77.3704 8.8376C76.901 8.01172 76.2087 7.43017 75.2943 7.09291C74.3885 6.75566 73.2764 6.58703 71.9581 6.58703H70.1059C69.7914 6.58703 69.5362 6.84291 69.5362 7.15846V17.413Z" fill="black"/>
<path d="M94.486 1.71429C94.801 1.71429 95.0557 1.97013 95.0557 2.28572V22.2857C95.0557 22.6013 94.801 22.8571 94.486 22.8571H88.7551C88.4407 22.8571 88.1854 22.6013 88.1854 22.2857V2.28572C88.1854 1.97012 88.4407 1.71429 88.7551 1.71429H94.486Z" fill="black"/>
<path d="M98.8814 22.8571C98.5669 22.8571 98.3116 22.6013 98.3116 22.2857V2.28572C98.3116 1.97012 98.5669 1.71429 98.8814 1.71429H115.536C115.851 1.71429 116.106 1.97013 116.106 2.28572V5.76789C116.106 6.08343 115.851 6.33931 115.536 6.33931H105.752C105.437 6.33931 105.182 6.59514 105.182 6.91074V9.40177C105.182 9.71737 105.437 9.9732 105.752 9.9732H114.448C114.763 9.9732 115.018 10.229 115.018 10.5446V14.0268C115.018 14.3424 114.763 14.5982 114.448 14.5982H105.752C105.437 14.5982 105.182 14.8541 105.182 15.1697V22.2857C105.182 22.6013 104.927 22.8571 104.613 22.8571H98.8814Z" fill="black"/>
<path d="M118.159 2.59477C117.915 2.21448 118.188 1.71429 118.638 1.71429H124.927C125.13 1.71429 125.319 1.82323 125.42 2.00006L130.149 10.2177C130.18 10.2709 130.236 10.3035 130.297 10.3035C130.358 10.3035 130.415 10.2709 130.446 10.2177L135.174 2.00006C135.276 1.82323 135.464 1.71429 135.668 1.71429H141.956C142.407 1.71429 142.679 2.21448 142.435 2.59477L133.798 16.0675C133.739 16.1597 133.708 16.267 133.708 16.3766V22.2857C133.708 22.6013 133.453 22.8571 133.138 22.8571H127.456C127.142 22.8571 126.887 22.6013 126.887 22.2857V16.3766C126.887 16.267 126.855 16.1597 126.797 16.0675L118.159 2.59477Z" fill="black"/>
<path d="M33.3677 0H4.15045C3.5688 0 3.36105 0.771389 3.8636 1.06514L16.453 8.42389C16.5401 8.47474 16.639 8.5016 16.7398 8.5016H33.3677C33.6823 8.5016 33.9374 8.24577 33.9374 7.93017V0.571429C33.9374 0.255837 33.6823 0 33.3677 0Z" fill="#2563EB"/>
<path d="M0 7.41577V2.54738C0 2.10487 0.47987 1.83029 0.859652 2.05548L15.9415 10.9983C16.0293 11.0503 16.1294 11.0778 16.2314 11.0778H28.7252C29.1369 11.0778 29.4126 11.5023 29.2464 11.8801L26.6874 17.693C26.5963 17.9001 26.3919 18.0337 26.1663 18.0337H16.2421C16.1334 18.0337 16.0269 18.0025 15.9353 17.9437L0.262913 7.89726C0.0991155 7.79223 0 7.61074 0 7.41577Z" fill="#2563EB"/>
<path d="M0 17.7315V11.6245C0 11.1693 0.504793 10.8968 0.883569 11.1475L15.4225 20.773C15.5156 20.8347 15.6248 20.8675 15.7363 20.8675H33.3677C33.6823 20.8675 33.9374 21.1234 33.9374 21.439V28.7977C33.9374 29.1133 33.6823 29.3691 33.3677 29.3691H16.7616C16.6471 29.3691 16.5354 29.3346 16.4408 29.2699L0.248912 18.2038C0.093183 18.0974 0 17.9206 0 17.7315Z" fill="#2563EB"/>
<path d="M0 28.7977V21.2017C0 20.7375 0.522494 20.467 0.899715 20.7359L11.5582 28.3319C12.0106 28.6543 11.7831 29.3691 11.2282 29.3691H0.569721C0.255073 29.3691 0 29.1133 0 28.7977Z" fill="#2563EB"/>
<path d="M46.7308 27.0391C46.684 26.9031 46.6194 26.7814 46.5369 26.6739C46.4564 26.5648 46.3589 26.4717 46.2447 26.3944C46.1323 26.3172 46.003 26.2593 45.8569 26.2207C45.7107 26.1803 45.5515 26.1602 45.3791 26.1602C45.07 26.1602 44.7946 26.2299 44.5529 26.3693C44.3113 26.5086 44.1211 26.7134 43.9824 26.9837C43.8457 27.2523 43.7773 27.5797 43.7773 27.9658C43.7773 28.3553 43.8457 28.6851 43.9824 28.9555C44.1192 29.2258 44.3094 29.4314 44.5529 29.5724C44.7965 29.7118 45.0794 29.7814 45.4016 29.7814C45.6939 29.7814 45.9468 29.7311 46.1603 29.6303C46.3758 29.5296 46.5416 29.3869 46.6578 29.2022C46.7739 29.0159 46.832 28.7977 46.832 28.5475L47.068 28.5802H45.5056V27.8499H47.8408V28.4694C47.8408 28.911 47.736 29.2929 47.5261 29.6153C47.3163 29.9375 47.0277 30.1861 46.6606 30.3606C46.2934 30.5335 45.8718 30.62 45.3959 30.62C44.8658 30.62 44.4002 30.5134 43.9993 30.3002C43.6002 30.0853 43.2883 29.7806 43.0635 29.3861C42.8406 28.9899 42.7291 28.5198 42.7291 27.9759C42.7291 27.5595 42.7947 27.1877 42.9258 26.8603C43.0588 26.5329 43.2443 26.2551 43.4822 26.0267C43.7202 25.7967 43.9993 25.6222 44.3197 25.503C44.64 25.3821 44.9885 25.3217 45.3651 25.3217C45.6835 25.3217 45.9805 25.3636 46.2559 25.4475C46.5313 25.5298 46.7758 25.6473 46.9893 25.8001C47.2048 25.9529 47.3819 26.1342 47.5205 26.3441C47.6591 26.5539 47.75 26.7856 47.7931 27.0391H46.7308Z" fill="#595959"/>
<path d="M49.5954 30.5495V26.6815H50.5818V27.3262H50.6268C50.7055 27.1029 50.8403 26.9308 51.0315 26.8099C51.2244 26.6874 51.4445 26.6261 51.6918 26.6261C51.7481 26.6261 51.8108 26.6286 51.8801 26.6337C51.9513 26.637 52.0103 26.6429 52.0572 26.6513V27.4898C52.0141 27.4764 51.9457 27.4647 51.852 27.4546C51.7602 27.4429 51.6712 27.437 51.5851 27.437C51.3996 27.437 51.2329 27.4731 51.0848 27.5453C50.9387 27.6158 50.8235 27.7139 50.7392 27.8399C50.6549 27.9658 50.6127 28.111 50.6127 28.2755V30.5495H49.5954Z" fill="#595959"/>
<path d="M55.2294 30.625C54.8079 30.625 54.4426 30.5419 54.1335 30.3757C53.8243 30.2095 53.5845 29.977 53.4141 29.6782C53.2455 29.3794 53.1611 29.0302 53.1611 28.6306C53.1611 28.231 53.2455 27.881 53.4141 27.5805C53.5845 27.28 53.8243 27.0466 54.1335 26.8805C54.4426 26.7142 54.8079 26.6311 55.2294 26.6311C55.651 26.6311 56.0163 26.7142 56.3254 26.8805C56.6346 27.0466 56.8734 27.28 57.0422 27.5805C57.2125 27.881 57.298 28.231 57.298 28.6306C57.298 29.0302 57.2125 29.3794 57.0422 29.6782C56.8734 29.977 56.6346 30.2095 56.3254 30.3757C56.0163 30.5419 55.651 30.625 55.2294 30.625ZM55.2351 29.8947C55.4637 29.8947 55.6547 29.8385 55.8083 29.7261C55.962 29.6119 56.0763 29.4591 56.1512 29.2677C56.228 29.0763 56.2665 28.8631 56.2665 28.6281C56.2665 28.3914 56.228 28.1773 56.1512 27.9859C56.0763 27.7929 55.962 27.6393 55.8083 27.5251C55.6547 27.411 55.4637 27.3539 55.2351 27.3539C55.0009 27.3539 54.806 27.411 54.6506 27.5251C54.497 27.6393 54.3817 27.7929 54.3049 27.9859C54.23 28.1773 54.1925 28.3914 54.1925 28.6281C54.1925 28.8631 54.23 29.0763 54.3049 29.2677C54.3817 29.4591 54.497 29.6119 54.6506 29.7261C54.806 29.8385 55.0009 29.8947 55.2351 29.8947Z" fill="#595959"/>
<path d="M61.7036 28.9227V26.6815H62.7212V30.5495H61.7344V29.862H61.69C61.5925 30.0786 61.4319 30.2557 61.2091 30.3934C60.9881 30.531 60.7157 30.5999 60.3916 30.5999C60.1084 30.5999 59.8583 30.5436 59.6413 30.4311C59.4259 30.317 59.2573 30.1516 59.1353 29.935C59.0134 29.7168 58.9525 29.4533 58.9525 29.1443V26.6815H59.97V29.0033C59.97 29.2484 60.0446 29.4431 60.1945 29.5875C60.3443 29.7319 60.5414 29.8041 60.7847 29.8041C60.9345 29.8041 61.0798 29.7714 61.2205 29.7059C61.3607 29.6404 61.4763 29.543 61.5663 29.4138C61.6581 29.2829 61.7036 29.1191 61.7036 28.9227Z" fill="#595959"/>
<path d="M64.5585 32V26.6815H65.5589V27.3211H65.6182C65.6706 27.2271 65.7447 27.1272 65.8398 27.0215C65.9355 26.914 66.0649 26.8225 66.2278 26.747C66.3907 26.6698 66.5987 26.6311 66.8516 26.6311C67.1849 26.6311 67.4857 26.7075 67.7535 26.8603C68.0236 27.0114 68.2372 27.2355 68.3945 27.5327C68.554 27.8281 68.6332 28.1907 68.6332 28.6205C68.6332 29.0453 68.5557 29.4062 68.4001 29.7034C68.2446 30.0005 68.0327 30.2271 67.7649 30.3833C67.4971 30.5394 67.1935 30.6175 66.8545 30.6175C66.6072 30.6175 66.4021 30.5806 66.2392 30.5067C66.0763 30.4328 65.9446 30.3438 65.8455 30.2398C65.7481 30.134 65.6723 30.0341 65.6182 29.9401H65.576V32H64.5585ZM65.5561 28.6155C65.5561 28.8657 65.5954 29.0847 65.674 29.2727C65.7549 29.4608 65.87 29.6077 66.0198 29.7134C66.1714 29.8175 66.3554 29.8696 66.5708 29.8696C66.7952 29.8696 66.9838 29.8158 67.1354 29.7084C67.2875 29.5993 67.4014 29.4507 67.4783 29.2627C67.557 29.073 67.5963 28.8573 67.5963 28.6155C67.5963 28.3754 67.5581 28.1622 67.4812 27.9759C67.4043 27.7895 67.2903 27.6435 67.1382 27.5377C66.9867 27.4319 66.7975 27.379 66.5708 27.379C66.3531 27.379 66.1685 27.4302 66.017 27.5327C65.8655 27.6351 65.7498 27.7786 65.6712 27.9633C65.5943 28.1479 65.5561 28.3654 65.5561 28.6155Z" fill="#595959"/>
<path d="M74.9331 30.625C74.5115 30.625 74.1464 30.5419 73.837 30.3757C73.5276 30.2095 73.2878 29.977 73.1174 29.6782C72.9488 29.3794 72.8645 29.0302 72.8645 28.6306C72.8645 28.231 72.9488 27.881 73.1174 27.5805C73.2878 27.28 73.5276 27.0466 73.837 26.8805C74.1464 26.7142 74.5115 26.6311 74.9331 26.6311C75.3547 26.6311 75.7199 26.7142 76.0287 26.8805C76.3381 27.0466 76.5768 27.28 76.7454 27.5805C76.9158 27.881 77.0012 28.231 77.0012 28.6306C77.0012 29.0302 76.9158 29.3794 76.7454 29.6782C76.5768 29.977 76.3381 30.2095 76.0287 30.3757C75.7199 30.5419 75.3547 30.625 74.9331 30.625ZM74.9388 29.8947C75.1673 29.8947 75.3582 29.8385 75.512 29.7261C75.6652 29.6119 75.7797 29.4591 75.8549 29.2677C75.9313 29.0763 75.97 28.8631 75.97 28.6281C75.97 28.3914 75.9313 28.1773 75.8549 27.9859C75.7797 27.7929 75.6652 27.6393 75.512 27.5251C75.3582 27.411 75.1673 27.3539 74.9388 27.3539C74.7047 27.3539 74.5098 27.411 74.3543 27.5251C74.2005 27.6393 74.0854 27.7929 74.0085 27.9859C73.9333 28.1773 73.8962 28.3914 73.8962 28.6281C73.8962 28.8631 73.9333 29.0763 74.0085 29.2677C74.0854 29.4591 74.2005 29.6119 74.3543 29.7261C74.5098 29.8385 74.7047 29.8947 74.9388 29.8947Z" fill="#595959"/>
<path d="M80.8423 26.6815V27.3866H78.2905V26.6815H80.8423ZM78.9286 30.5495V26.3163C78.9286 26.0561 78.9884 25.8395 79.1086 25.6666C79.2305 25.4937 79.3935 25.3645 79.5974 25.2789C79.802 25.1932 80.0282 25.1504 80.2777 25.1504C80.4537 25.1504 80.6098 25.163 80.7471 25.1882C80.8839 25.2134 80.9847 25.2361 81.0502 25.2562L80.848 25.9613C80.8047 25.9495 80.7506 25.9378 80.685 25.926C80.6195 25.9126 80.5466 25.9059 80.4657 25.9059C80.2766 25.9059 80.1427 25.947 80.064 26.0293C79.9871 26.1099 79.949 26.2257 79.949 26.3768V30.5495H78.9286Z" fill="#595959"/>
<path d="M90.1561 27.1323H89.105C89.0753 26.9778 89.0195 26.841 88.9392 26.7218C88.8588 26.6009 88.7586 26.4985 88.6384 26.4146C88.5187 26.3306 88.382 26.2677 88.2282 26.2257C88.0766 26.1821 87.9125 26.1602 87.7365 26.1602C87.4237 26.1602 87.1463 26.2307 86.9047 26.3718C86.6631 26.5111 86.474 26.7159 86.3367 26.9862C86.1999 27.2548 86.1316 27.583 86.1316 27.9709C86.1316 28.3654 86.1999 28.6978 86.3367 28.9681C86.4757 29.2367 86.6648 29.4398 86.9047 29.5775C87.1463 29.7134 87.4226 29.7814 87.7336 29.7814C87.9063 29.7814 88.0669 29.7613 88.2168 29.721C88.3689 29.679 88.5045 29.6178 88.6247 29.5371C88.746 29.4566 88.8486 29.3575 88.9306 29.24C89.0149 29.1225 89.073 28.9882 89.105 28.8371L90.1561 28.8421C90.1168 29.0873 90.0313 29.3173 89.9003 29.5321C89.771 29.747 89.6018 29.9367 89.3915 30.1013C89.1819 30.2641 88.9363 30.3917 88.6554 30.484C88.3746 30.5747 88.0624 30.62 87.7194 30.62C87.2135 30.62 86.7623 30.5151 86.3652 30.3053C85.9681 30.0954 85.6553 29.7923 85.4263 29.3962C85.1978 28.9999 85.0839 28.5249 85.0839 27.9709C85.0839 27.4151 85.1989 26.9401 85.4291 26.5455C85.6599 26.1493 85.9738 25.8463 86.3709 25.6365C86.768 25.4266 87.2175 25.3217 87.7194 25.3217C88.0401 25.3217 88.3381 25.3619 88.6133 25.4425C88.8885 25.5231 89.134 25.6415 89.3494 25.7976C89.5647 25.9521 89.7419 26.1418 89.8809 26.3667C90.0211 26.59 90.1128 26.8452 90.1561 27.1323Z" fill="#595959"/>
<path d="M93.7402 30.625C93.3186 30.625 92.9534 30.5419 92.6441 30.3757C92.3347 30.2095 92.0948 29.977 91.9245 29.6782C91.7559 29.3794 91.6715 29.0302 91.6715 28.6306C91.6715 28.231 91.7559 27.881 91.9245 27.5805C92.0948 27.28 92.3347 27.0466 92.6441 26.8805C92.9534 26.7142 93.3186 26.6311 93.7402 26.6311C94.1618 26.6311 94.527 26.7142 94.8358 26.8805C95.1451 27.0466 95.3838 27.28 95.5525 27.5805C95.7228 27.881 95.8083 28.231 95.8083 28.6306C95.8083 29.0302 95.7228 29.3794 95.5525 29.6782C95.3838 29.977 95.1451 30.2095 94.8358 30.3757C94.527 30.5419 94.1618 30.625 93.7402 30.625ZM93.7459 29.8947C93.9744 29.8947 94.1652 29.8385 94.319 29.7261C94.4723 29.6119 94.5868 29.4591 94.662 29.2677C94.7384 29.0763 94.7771 28.8631 94.7771 28.6281C94.7771 28.3914 94.7384 28.1773 94.662 27.9859C94.5868 27.7929 94.4723 27.6393 94.319 27.5251C94.1652 27.411 93.9744 27.3539 93.7459 27.3539C93.5117 27.3539 93.3169 27.411 93.1614 27.5251C93.0075 27.6393 92.8925 27.7929 92.8155 27.9859C92.7403 28.1773 92.7033 28.3914 92.7033 28.6281C92.7033 28.8631 92.7403 29.0763 92.8155 29.2677C92.8925 29.4591 93.0075 29.6119 93.1614 29.7261C93.3169 29.8385 93.5117 29.8947 93.7459 29.8947Z" fill="#595959"/>
<path d="M97.4633 30.5495V26.6815H98.4353V27.3387H98.486C98.576 27.1171 98.7247 26.9442 98.9326 26.82C99.1406 26.6941 99.389 26.6311 99.6778 26.6311C99.9701 26.6311 100.216 26.6949 100.417 26.8225C100.619 26.9485 100.761 27.1205 100.844 27.3387H100.889C100.984 27.1239 101.145 26.9526 101.372 26.825C101.601 26.6958 101.871 26.6311 102.184 26.6311C102.582 26.6311 102.905 26.7436 103.157 26.9686C103.408 27.1935 103.533 27.5218 103.533 27.9532V30.5495H102.513V28.0942C102.513 27.8542 102.442 27.6787 102.3 27.5679C102.157 27.4554 101.983 27.3992 101.777 27.3992C101.531 27.3992 101.339 27.468 101.201 27.6057C101.064 27.7417 100.996 27.9188 100.996 28.137V30.5495H99.998V28.0565C99.998 27.8567 99.9302 27.6972 99.7958 27.578C99.6625 27.4588 99.4881 27.3992 99.2728 27.3992C99.1269 27.3992 98.9936 27.4327 98.874 27.4999C98.7538 27.5654 98.6586 27.6586 98.5874 27.7794C98.5162 27.8986 98.4803 28.038 98.4803 28.1975V30.5495H97.4633Z" fill="#595959"/>
<path d="M105.357 32V26.6815H106.357V27.3211H106.416C106.468 27.2271 106.542 27.1272 106.638 27.0215C106.734 26.914 106.863 26.8225 107.026 26.747C107.189 26.6698 107.397 26.6311 107.65 26.6311C107.983 26.6311 108.284 26.7075 108.552 26.8603C108.822 27.0114 109.035 27.2355 109.193 27.5327C109.352 27.8281 109.431 28.1907 109.431 28.6205C109.431 29.0453 109.353 29.4062 109.198 29.7034C109.043 30.0005 108.831 30.2271 108.563 30.3833C108.295 30.5394 107.992 30.6175 107.653 30.6175C107.405 30.6175 107.2 30.5806 107.037 30.5067C106.874 30.4328 106.743 30.3438 106.644 30.2398C106.546 30.134 106.471 30.0341 106.416 29.9401H106.374V32H105.357ZM106.354 28.6155C106.354 28.8657 106.394 29.0847 106.472 29.2727C106.553 29.4608 106.668 29.6077 106.818 29.7134C106.97 29.8175 107.153 29.8696 107.368 29.8696C107.594 29.8696 107.782 29.8158 107.934 29.7084C108.085 29.5993 108.2 29.4507 108.277 29.2627C108.355 29.073 108.395 28.8573 108.395 28.6155C108.395 28.3754 108.356 28.1622 108.279 27.9759C108.203 27.7895 108.088 27.6435 107.937 27.5377C107.784 27.4319 107.595 27.379 107.368 27.379C107.151 27.379 106.967 27.4302 106.815 27.5327C106.663 27.6351 106.548 27.7786 106.469 27.9633C106.393 28.1479 106.354 28.3654 106.354 28.6155Z" fill="#595959"/>
<path d="M112.336 30.6275C112.062 30.6275 111.816 30.5839 111.597 30.4966C111.38 30.4077 111.207 30.2767 111.08 30.1038C110.954 29.9309 110.892 29.7177 110.892 29.4641C110.892 29.2459 110.937 29.0654 111.027 28.9227C111.117 28.78 111.239 28.6659 111.395 28.5802C111.55 28.4946 111.725 28.43 111.92 28.3863C112.117 28.341 112.32 28.3083 112.53 28.2881C112.783 28.2646 112.988 28.2437 113.145 28.2252C113.303 28.205 113.417 28.1748 113.488 28.1345C113.561 28.0926 113.598 28.0279 113.598 27.9406V27.9255C113.598 27.7358 113.535 27.5889 113.41 27.4848C113.284 27.3807 113.103 27.3287 112.867 27.3287C112.618 27.3287 112.42 27.3774 112.274 27.4747C112.13 27.5721 112.033 27.6871 111.982 27.8197L111.032 27.6989C111.107 27.4638 111.231 27.2674 111.403 27.1096C111.575 26.9501 111.786 26.8309 112.035 26.752C112.285 26.6714 112.56 26.6311 112.862 26.6311C113.07 26.6311 113.277 26.653 113.483 26.6966C113.688 26.7402 113.877 26.8125 114.047 26.9132C114.218 27.0122 114.355 27.1474 114.458 27.3186C114.563 27.4898 114.615 27.7039 114.615 27.9607V30.5495H113.637V30.0182H113.604C113.541 30.1256 113.454 30.2263 113.342 30.3203C113.231 30.4127 113.092 30.4874 112.923 30.5445C112.757 30.5999 112.561 30.6275 112.336 30.6275ZM112.6 29.9577C112.804 29.9577 112.981 29.9216 113.131 29.8494C113.281 29.7755 113.396 29.6782 113.477 29.5573C113.56 29.4365 113.601 29.3046 113.601 29.1619V28.7062C113.569 28.7297 113.515 28.7515 113.438 28.7716C113.363 28.7918 113.278 28.8094 113.185 28.8245C113.091 28.8396 112.998 28.853 112.907 28.8648C112.814 28.8766 112.735 28.8866 112.667 28.895C112.516 28.9135 112.38 28.9437 112.26 28.9857C112.14 29.0277 112.046 29.0864 111.976 29.1619C111.907 29.2358 111.872 29.3315 111.872 29.449C111.872 29.6169 111.941 29.7437 112.077 29.8293C112.215 29.9149 112.388 29.9577 112.6 29.9577Z" fill="#595959"/>
<path d="M117.447 28.2831V30.5495H116.429V26.6815H117.402V27.3387H117.453C117.552 27.1222 117.71 26.9501 117.927 26.8225C118.146 26.6949 118.417 26.6311 118.74 26.6311C119.038 26.6311 119.297 26.6882 119.518 26.8023C119.741 26.9165 119.913 27.0819 120.035 27.2985C120.159 27.515 120.22 27.7778 120.217 28.0867V30.5495H119.2V28.2277C119.2 27.9691 119.125 27.7669 118.975 27.6208C118.827 27.4747 118.622 27.4017 118.36 27.4017C118.182 27.4017 118.024 27.437 117.885 27.5075C117.748 27.5763 117.641 27.6762 117.562 27.8071C117.485 27.9381 117.447 28.0967 117.447 28.2831Z" fill="#595959"/>
<path d="M122.043 30.5495V26.6815H123.06V30.5495H122.043ZM122.554 26.1325C122.393 26.1325 122.255 26.0847 122.139 25.989C122.022 25.8916 121.964 25.7749 121.964 25.639C121.964 25.5013 122.022 25.3846 122.139 25.2889C122.255 25.1915 122.393 25.1429 122.554 25.1429C122.717 25.1429 122.856 25.1915 122.97 25.2889C123.087 25.3846 123.145 25.5013 123.145 25.639C123.145 25.7749 123.087 25.8916 122.97 25.989C122.856 26.0847 122.717 26.1325 122.554 26.1325Z" fill="#595959"/>
<path d="M126.809 30.625C126.376 30.625 126.002 30.5445 125.687 30.3833C125.375 30.2205 125.134 29.9905 124.965 29.6933C124.797 29.3945 124.713 29.0427 124.713 28.6382C124.713 28.2403 124.797 27.8911 124.965 27.5906C125.136 27.2884 125.374 27.0534 125.679 26.8855C125.985 26.7159 126.343 26.6311 126.756 26.6311C127.022 26.6311 127.272 26.6698 127.509 26.747C127.746 26.8225 127.957 26.9401 128.138 27.0995C128.322 27.259 128.466 27.4622 128.571 27.7089C128.676 27.9541 128.728 28.2462 128.728 28.5853V28.8648H125.19V28.2503H127.753C127.751 28.0758 127.709 27.9205 127.627 27.7845C127.544 27.6468 127.429 27.5385 127.281 27.4597C127.135 27.3807 126.964 27.3413 126.769 27.3413C126.561 27.3413 126.379 27.3866 126.222 27.4773C126.064 27.5662 125.941 27.6838 125.853 27.8298C125.767 27.9742 125.723 28.1329 125.721 28.3058V28.8421C125.721 29.0671 125.767 29.2602 125.859 29.4213C125.951 29.5808 126.079 29.7034 126.244 29.789C126.409 29.8729 126.602 29.9149 126.823 29.9149C126.971 29.9149 127.105 29.8965 127.224 29.8595C127.345 29.8209 127.448 29.7646 127.537 29.6908C127.625 29.6169 127.691 29.5254 127.736 29.4163L128.686 29.512C128.626 29.737 128.512 29.9334 128.343 30.1013C128.176 30.2675 127.963 30.3967 127.702 30.4891C127.442 30.5797 127.144 30.625 126.809 30.625Z" fill="#595959"/>
<path d="M133.792 27.7039L132.864 27.7946C132.838 27.7106 132.792 27.6317 132.727 27.5578C132.663 27.484 132.577 27.4244 132.468 27.379C132.359 27.3337 132.227 27.311 132.069 27.311C131.857 27.311 131.68 27.3522 131.535 27.4345C131.393 27.5167 131.322 27.6233 131.324 27.7543C131.322 27.8667 131.369 27.9582 131.462 28.0287C131.558 28.0993 131.715 28.1572 131.934 28.2025L132.67 28.3435C133.079 28.4225 133.383 28.5475 133.581 28.7187C133.781 28.89 133.883 29.1141 133.884 29.3911C133.883 29.6345 133.803 29.8494 133.646 30.0358C133.49 30.2205 133.274 30.3648 132.996 30.4689C132.719 30.573 132.401 30.625 132.041 30.625C131.513 30.625 131.087 30.526 130.765 30.3279C130.443 30.1281 130.251 29.8503 130.189 29.4943L131.181 29.4087C131.226 29.5833 131.321 29.7151 131.468 29.8041C131.614 29.8931 131.804 29.9375 132.038 29.9375C132.28 29.9375 132.474 29.8931 132.62 29.8041C132.768 29.7151 132.842 29.6051 132.842 29.4742C132.842 29.3634 132.794 29.2719 132.698 29.1997C132.605 29.1275 132.459 29.0721 132.26 29.0335L131.524 28.895C131.11 28.8178 130.803 28.6877 130.605 28.5047C130.406 28.32 130.308 28.0867 130.31 27.8046C130.308 27.5662 130.38 27.3597 130.527 27.1851C130.674 27.0089 130.879 26.8729 131.142 26.7772C131.406 26.6798 131.71 26.6311 132.055 26.6311C132.561 26.6311 132.959 26.7277 133.249 26.9207C133.541 27.1138 133.723 27.3749 133.792 27.7039Z" fill="#595959"/>
</g>
<defs>
<clipPath id="clip0_8_2">
<rect width="143" height="32" fill="white"/>
</clipPath>
</defs>
</svg>